<?xml version="1.0" encoding="UTF-8"?>
<svg width="864px" height="864px" viewBox="0 0 864 864" version="1.1" xmlns="http://www.w3.org/2000/svg" xmlns:xlink="http://www.w3.org/1999/xlink">
    <title>Group</title>
    <g id="Page-1" stroke="none" stroke-width="1" fill="none" fill-rule="evenodd">
        <g id="Group">
            <polygon id="Fill-1" fill="#1A1919" points="0 863.94 864 863.94 864 0 0 0"></polygon>
            <polygon id="Fill-3" fill="#FFFFFE" points="84.645 715.329 486.56 715.329 486.56 703.516 84.645 703.516"></polygon>
            <polygon id="Fill-4" fill="#FFFFFE" points="84.645 739.044 486.56 739.044 486.56 727.221 84.645 727.221"></polygon>
            <polyline id="Fill-5" fill="#FFFFFE" points="146.13 112.429 146.13 205.752 135.331 205.752 107.473 161.193 97.544 144.099 97.544 205.752 82.965 205.752 82.965 112.429 94.925 112.429 122.063 157.828 131.54 174.928 131.54 112.429 146.13 112.429"></polyline>
            <polyline id="Fill-6" fill="#FFFFFE" points="146.13 112.429 146.068 112.429 146.068 205.69 135.365 205.69 107.525 161.16 97.482 143.868 97.482 205.69 83.027 205.69 83.027 112.492 94.889 112.492 122.009 157.86 131.603 175.17 131.603 112.492 146.13 112.492 146.13 112.429 146.068 112.429 146.13 112.429 146.13 112.367 131.478 112.367 131.478 174.687 122.118 157.798 94.96 112.367 82.902 112.367 82.902 205.815 97.607 205.815 97.607 144.33 107.418 161.225 135.295 205.815 146.193 205.815 146.193 112.367 146.13 112.367 146.13 112.429"></polyline>
            <path d="M181.732,169.321 L190.92,132.606 L200.402,169.321 L181.732,169.321 Z M199.525,112.429 L183.191,112.429 L157.513,205.752 L172.686,205.752 L178.666,181.654 L203.61,181.654 L209.884,205.752 L225.493,205.752 L199.525,112.429 L199.525,112.429 Z" id="Fill-7" fill="#FFFFFE"></path>
            <path d="M181.732,169.321 L181.792,169.336 L190.921,132.859 L200.321,169.258 L181.732,169.258 L181.732,169.321 L181.792,169.336 L181.732,169.321 L181.732,169.383 L200.482,169.383 L190.918,132.353 L181.652,169.383 L181.732,169.383 L181.732,169.321 Z M199.525,112.429 L199.525,112.367 L183.144,112.367 L157.431,205.815 L172.735,205.815 L178.715,181.716 L203.562,181.716 L209.835,205.815 L225.575,205.815 L199.572,112.367 L199.525,112.367 L199.525,112.429 L199.464,112.446 L225.41,205.69 L209.932,205.69 L203.658,181.591 L178.617,181.591 L172.637,205.69 L157.594,205.69 L183.239,112.492 L199.525,112.492 L199.525,112.429 L199.464,112.446 L199.525,112.429 L199.525,112.429 Z" id="Fill-8" fill="#FFFFFE"></path>
            <polyline id="Fill-9" fill="#FFFFFE" points="292.606 112.429 292.606 125.88 268.975 125.88 268.975 205.752 253.508 205.752 253.508 125.88 229.876 125.88 229.876 112.429 292.606 112.429"></polyline>
            <polyline id="Fill-10" fill="#FFFFFE" points="292.606 112.429 292.544 112.429 292.544 125.818 268.913 125.818 268.913 205.69 253.57 205.69 253.57 125.818 229.938 125.818 229.938 112.492 292.606 112.492 292.606 112.429 292.544 112.429 292.606 112.429 292.606 112.367 229.814 112.367 229.814 125.943 253.445 125.943 253.445 205.815 269.038 205.815 269.038 125.943 292.669 125.943 292.669 112.367 292.606 112.367 292.606 112.429"></polyline>
            <polygon id="Fill-11" fill="#FFFFFE" points="305.007 205.752 320.469 205.752 320.469 112.429 305.007 112.429"></polygon>
            <polyline id="Fill-12" fill="#FFFFFE" points="320.469 112.429 320.407 112.429 320.407 205.69 305.069 205.69 305.069 112.492 320.469 112.492 320.469 112.429 320.407 112.429 320.469 112.429 320.469 112.367 304.945 112.367 304.945 205.815 320.532 205.815 320.532 112.367 320.469 112.367 320.469 112.429"></polyline>
            <path d="M385.683,178.85 C385.683,188.379 380.721,195.105 369.785,195.105 C358.985,195.105 354.029,188.379 354.029,178.85 L354.029,139.332 C354.029,129.808 358.985,123.077 369.785,123.077 C380.721,123.077 385.683,129.808 385.683,139.332 L385.683,178.85 Z M369.785,110.188 C348.049,110.188 338.42,123.219 338.42,140.313 L338.42,177.868 C338.42,195.105 348.049,208.136 369.785,208.136 C391.667,208.136 401.144,195.105 401.144,177.868 L401.144,140.313 C401.144,123.219 391.667,110.188 369.785,110.188 L369.785,110.188 Z" id="Fill-13" fill="#FFFFFE"></path>
            <path d="M385.683,178.85 L385.62,178.85 C385.612,188.358 380.691,195.036 369.785,195.042 C359.015,195.036 354.099,188.358 354.091,178.85 L354.091,139.332 C354.099,129.829 359.015,123.146 369.785,123.14 C380.691,123.146 385.612,129.829 385.62,139.332 L385.62,178.85 L385.745,178.85 L385.745,139.332 C385.745,134.559 384.502,130.479 381.881,127.591 C379.26,124.703 375.265,123.014 369.785,123.015 C364.372,123.014 360.413,124.703 357.81,127.591 C355.208,130.479 353.966,134.559 353.966,139.332 L353.966,178.85 C353.966,183.625 355.208,187.705 357.81,190.593 C360.413,193.48 364.372,195.168 369.785,195.167 C375.265,195.168 379.26,193.481 381.881,190.593 C384.502,187.706 385.745,183.625 385.745,178.85 L385.683,178.85 Z M369.785,110.188 L369.785,110.125 C358.905,110.125 351.043,113.388 345.906,118.797 C340.768,124.206 338.357,131.755 338.357,140.313 L338.357,177.868 C338.357,186.498 340.768,194.082 345.906,199.509 C351.043,204.936 358.905,208.199 369.785,208.198 C380.738,208.199 388.598,204.936 393.716,199.509 C398.834,194.082 401.207,186.498 401.207,177.868 L401.207,140.313 C401.207,131.755 398.834,124.206 393.716,118.797 C388.598,113.388 380.738,110.125 369.785,110.125 L369.785,110.25 C391.639,110.256 401.074,123.242 401.082,140.313 L401.082,177.868 C401.074,195.082 391.639,208.067 369.785,208.073 C348.077,208.067 338.489,195.082 338.482,177.868 L338.482,140.313 C338.489,123.243 348.077,110.256 369.785,110.25 L369.785,110.188 L369.785,110.188 Z" id="Fill-14" fill="#FFFFFE"></path>
            <polyline id="Fill-15" fill="#FFFFFE" points="482.413 112.429 482.413 205.752 471.618 205.752 443.755 161.193 433.833 144.099 433.833 205.752 419.252 205.752 419.252 112.429 431.212 112.429 458.346 157.828 467.828 174.928 467.828 112.429 482.413 112.429"></polyline>
            <polyline id="Fill-16" fill="#FFFFFE" points="482.413 112.429 482.35 112.429 482.35 205.69 471.652 205.69 443.808 161.16 433.77 143.868 433.77 205.69 419.314 205.69 419.314 112.492 431.177 112.492 458.292 157.86 467.89 175.169 467.89 112.492 482.413 112.492 482.413 112.429 482.35 112.429 482.413 112.429 482.413 112.367 467.765 112.367 467.765 174.687 458.4 157.798 431.248 112.367 419.19 112.367 419.19 205.815 433.895 205.815 433.895 144.331 443.701 161.225 471.583 205.815 482.475 205.815 482.475 112.367 482.413 112.367 482.413 112.429"></polyline>
            <path d="M518.015,169.321 L527.202,132.606 L536.689,169.321 L518.015,169.321 Z M535.808,112.429 L519.474,112.429 L493.8,205.752 L508.968,205.752 L514.954,181.654 L539.892,181.654 L546.166,205.752 L561.775,205.752 L535.808,112.429 L535.808,112.429 Z" id="Fill-17" fill="#FFFFFE"></path>
            <path d="M518.015,169.321 L518.075,169.336 L527.203,132.859 L536.608,169.258 L518.015,169.258 L518.015,169.321 L518.075,169.336 L518.015,169.321 L518.015,169.383 L536.77,169.383 L527.201,132.353 L517.935,169.383 L518.015,169.383 L518.015,169.321 Z M535.808,112.429 L535.808,112.367 L519.426,112.367 L493.718,205.815 L509.017,205.815 L515.002,181.716 L539.844,181.716 L546.117,205.815 L561.857,205.815 L535.855,112.367 L535.808,112.367 L535.808,112.429 L535.747,112.446 L561.692,205.69 L546.214,205.69 L539.94,181.591 L514.904,181.591 L508.919,205.69 L493.882,205.69 L519.521,112.492 L535.808,112.492 L535.808,112.429 L535.747,112.446 L535.808,112.429 L535.808,112.429 Z" id="Fill-18" fill="#FFFFFE"></path>
            <polyline id="Fill-19" fill="#FFFFFE" points="624.946 192.443 624.946 205.752 573.31 205.752 573.31 112.429 588.772 112.429 588.772 192.443 624.946 192.443"></polyline>
            <polyline id="Fill-20" fill="#FFFFFE" points="624.946 192.443 624.883 192.443 624.883 205.69 573.372 205.69 573.372 112.492 588.709 112.492 588.709 192.505 624.946 192.505 624.946 192.443 624.883 192.443 624.946 192.443 624.946 192.38 588.834 192.38 588.834 112.367 573.247 112.367 573.247 205.815 625.008 205.815 625.008 192.38 624.946 192.38 624.946 192.443"></polyline>
            <polyline id="Fill-21" fill="#FFFFFE" points="97.975 238.33 97.975 262.854 123.617 262.854 123.617 275.465 97.975 275.465 97.975 305.034 133.561 305.034 133.561 318.343 83.122 318.343 83.122 225.021 133.561 225.021 133.561 238.33 97.975 238.33"></polyline>
            <polyline id="Fill-22" fill="#FFFFFE" points="97.975 238.33 97.913 238.33 97.913 262.917 123.555 262.917 123.555 275.402 97.913 275.402 97.913 305.097 133.499 305.097 133.499 318.281 83.184 318.281 83.184 225.083 133.499 225.083 133.499 238.268 97.913 238.268 97.913 238.33 97.975 238.33 97.975 238.393 133.624 238.393 133.624 224.958 83.06 224.958 83.06 318.406 133.624 318.406 133.624 304.972 98.038 304.972 98.038 275.527 123.68 275.527 123.68 262.792 98.038 262.792 98.038 238.33 97.975 238.33 97.975 238.393 97.975 238.33"></polyline>
            <polyline id="Fill-23" fill="#FFFFFE" points="208.949 225.021 208.949 318.343 198.585 318.343 171.82 273.785 162.285 256.69 162.285 318.343 148.277 318.343 148.277 225.021 159.765 225.021 185.833 270.419 194.941 287.52 194.941 225.021 208.949 225.021"></polyline>
            <polyline id="Fill-24" fill="#FFFFFE" points="208.949 225.021 208.887 225.021 208.887 318.281 198.621 318.281 171.873 273.752 171.82 273.785 171.875 273.754 162.223 256.45 162.223 318.281 148.339 318.281 148.339 225.083 159.729 225.083 185.778 270.451 195.004 287.77 195.004 225.083 208.949 225.083 208.949 225.021 208.887 225.021 208.949 225.021 208.949 224.958 194.879 224.958 194.879 287.27 185.888 270.39 159.801 224.958 148.215 224.958 148.215 318.406 162.348 318.406 162.348 256.93 171.765 273.815 171.766 273.817 198.55 318.406 209.012 318.406 209.012 224.958 208.949 224.958 208.949 225.021"></polyline>
            <path d="M272.146,289.478 C272.146,299.148 267.39,305.034 256.874,305.034 L242.44,305.034 L242.44,238.33 L256.874,238.33 C267.39,238.33 272.146,244.221 272.146,254.028 L272.146,289.478 Z M258.139,225.021 L227.587,225.021 L227.587,318.343 L258.139,318.343 C278.037,318.343 286.999,306.011 286.999,290.879 L286.999,252.484 C286.999,237.354 278.037,225.021 258.139,225.021 L258.139,225.021 Z" id="Fill-25" fill="#FFFFFE"></path>
            <path d="M272.146,289.478 L272.084,289.478 C272.075,299.128 267.363,304.964 256.874,304.972 L242.503,304.972 L242.503,238.393 L256.874,238.393 C267.363,238.4 272.075,244.241 272.084,254.028 L272.084,289.478 L272.209,289.478 L272.209,254.028 C272.209,249.115 271.017,245.173 268.499,242.459 C265.981,239.744 262.143,238.267 256.874,238.267999 L242.378,238.267999 L242.378,305.097 L256.874,305.097 C262.143,305.097 265.981,303.621 268.499,300.925 C271.017,298.229 272.209,294.323 272.209,289.478 L272.146,289.478 Z M258.139,225.021 L258.139,224.958 L227.525,224.958 L227.525,318.406 L258.139,318.406 C268.1,318.406 275.335,315.317 280.076,310.329 C284.817,305.34 287.062,298.457 287.062,290.879 L287.062,252.484 C287.062,244.907 284.817,238.024 280.076,233.035 C275.335,228.046 268.1,224.958 258.139,224.958 L258.139,225.083 C278.008,225.088 286.93,237.378 286.937,252.484 L286.937,290.879 C286.93,305.986 278.008,318.275 258.139,318.281 L227.65,318.281 L227.65,225.083 L258.139,225.083 L258.139,225.021 L258.139,225.021 Z" id="Fill-26" fill="#FFFFFE"></path>
            <path d="M348.379,291.441 C348.379,300.97 343.612,307.696 333.106,307.696 C322.737,307.696 317.97,300.97 317.97,291.441 L317.97,251.923 C317.97,242.399 322.737,235.668 333.106,235.668 C343.612,235.668 348.379,242.399 348.379,251.923 L348.379,291.441 Z M333.106,222.779 C312.221,222.779 302.981,235.81 302.981,252.904 L302.981,290.459 C302.981,307.696 312.221,320.727 333.106,320.727 C354.123,320.727 363.232,307.696 363.232,290.459 L363.232,252.904 C363.232,235.81 354.123,222.779 333.106,222.779 L333.106,222.779 Z" id="Fill-27" fill="#FFFFFE"></path>
            <path d="M348.379,291.441 L348.317,291.441 C348.309,300.951 343.581,307.627 333.106,307.633 C322.77,307.627 318.04,300.951 318.033,291.441 L318.033,251.923 C318.04,242.418 322.77,235.736 333.106,235.73 C343.581,235.736 348.309,242.418 348.317,251.923 L348.317,291.441 L348.442,291.441 L348.442,251.923 C348.442,247.151 347.248,243.071 344.729,240.183 C342.212,237.294 338.372,235.605 333.106,235.605 C327.909,235.605 324.103,237.294 321.603,240.183 C319.102,243.071 317.908,247.151 317.908,251.923 L317.908,291.441 C317.908,296.216 319.102,300.295 321.603,303.183 C324.103,306.071 327.909,307.759 333.106,307.758 C338.372,307.759 342.212,306.071 344.729,303.183 C347.248,300.295 348.442,296.216 348.442,291.441 L348.379,291.441 Z M333.106,222.779 L333.106,222.716 C322.651,222.716 315.099,225.979 310.166,231.389 C305.231,236.798 302.918,244.346 302.918,252.904 L302.918,290.459 C302.918,299.088 305.231,306.672 310.166,312.099 C315.099,317.526 322.651,320.79 333.106,320.79 C343.627,320.79 351.179,317.526 356.097,312.099 C361.015,306.671 363.295,299.088 363.295,290.459 L363.295,252.904 C363.295,244.347 361.015,236.799 356.097,231.389 C351.179,225.979 343.627,222.716 333.106,222.716 L333.106,222.841 C354.093,222.848 363.163,235.832 363.17,252.904 L363.17,290.459 C363.163,307.674 354.093,320.658 333.106,320.665 C312.251,320.659 303.05,307.674 303.043,290.459 L303.043,252.904 C303.05,235.832 312.251,222.847 333.106,222.841 L333.106,222.779 L333.106,222.779 Z" id="Fill-28" fill="#FFFFFE"></path>
            <polyline id="Fill-29" fill="#FFFFFE" points="470.426 225.021 450.806 318.343 436.231 318.343 422.224 252.206 407.371 318.343 392.796 318.343 373.46 225.021 388.733 225.021 400.362 294.943 415.64 225.021 429.511 225.021 443.802 294.943 455.573 225.021 470.426 225.021"></polyline>
            <polyline id="Fill-30" fill="#FFFFFE" points="470.426 225.021 470.365 225.008 450.755 318.281 436.282 318.281 422.226 251.914 407.321 318.281 392.847 318.281 373.537 225.083 388.68 225.083 400.354 295.275 415.69 225.083 429.46 225.083 443.808 295.286 455.626 225.083 470.426 225.083 470.426 225.021 470.365 225.008 470.426 225.021 470.426 224.958 455.521 224.958 443.796 294.602 429.562 224.958 415.59 224.958 400.371 294.611 388.786 224.958 373.383 224.958 392.745 318.406 407.421 318.406 422.222 252.499 436.181 318.406 450.857 318.406 470.503 224.958 470.426 224.958 470.426 225.021"></polyline>
            <polyline id="Fill-31" fill="#FFFFFE" points="561.507 225.021 561.507 318.343 548.193 318.343 548.193 244.641 543.573 263.137 528.72 318.343 514.009 318.343 499.576 263.137 494.95 244.641 494.95 318.343 481.636 318.343 481.636 225.021 502.238 225.021 517.232 283.592 521.716 302.23 526.194 283.45 540.916 225.021 561.507 225.021"></polyline>
            <polyline id="Fill-32" fill="#FFFFFE" points="561.507 225.021 561.445 225.021 561.445 318.281 548.255 318.281 548.255 244.133 543.512 263.122 528.671 318.281 514.057 318.281 499.636 263.121 494.888 244.137 494.888 318.281 481.698 318.281 481.698 225.083 502.189 225.083 517.172 283.608 521.716 302.5 526.255 283.465 540.964 225.083 561.507 225.083 561.507 225.021 561.445 225.021 561.507 225.021 561.507 224.958 540.867 224.958 526.134 283.435 521.715 301.962 517.293 283.578 502.286 224.958 481.573 224.958 481.573 318.406 495.013 318.406 495.013 245.147 499.515 263.152 513.96 318.406 528.768 318.406 543.633 263.153 548.13 245.148 548.13 318.406 561.57 318.406 561.57 224.958 561.507 224.958 561.507 225.021"></polyline>
            <polyline id="Fill-33" fill="#FFFFFE" points="595.14 238.33 595.14 262.854 620.782 262.854 620.782 275.465 595.14 275.465 595.14 305.034 630.727 305.034 630.727 318.343 580.287 318.343 580.287 225.021 630.727 225.021 630.727 238.33 595.14 238.33"></polyline>
            <polyline id="Fill-34" fill="#FFFFFE" points="595.14 238.33 595.078 238.33 595.078 262.917 620.72 262.917 620.72 275.402 595.078 275.402 595.078 305.097 630.664 305.097 630.664 318.281 580.349 318.281 580.349 225.083 630.664 225.083 630.664 238.268 595.078 238.268 595.078 238.33 595.14 238.33 595.14 238.393 630.789 238.393 630.789 224.958 580.225 224.958 580.225 318.406 630.789 318.406 630.789 304.972 595.202 304.972 595.202 275.527 620.845 275.527 620.845 262.792 595.202 262.792 595.203 238.33 595.14 238.33 595.14 238.393 595.14 238.33"></polyline>
            <polyline id="Fill-35" fill="#FFFFFE" points="705.983 225.021 705.983 318.343 695.609 318.343 668.843 273.785 659.319 256.69 659.319 318.343 645.306 318.343 645.306 225.021 656.799 225.021 682.861 270.419 691.965 287.52 691.965 225.021 705.983 225.021"></polyline>
            <polyline id="Fill-36" fill="#FFFFFE" points="705.983 225.021 705.92 225.021 705.92 318.281 695.644 318.281 668.896 273.752 659.257 256.45 659.257 318.281 645.368 318.281 645.368 225.083 656.763 225.083 682.807 270.451 692.027 287.77 692.027 225.083 705.983 225.083 705.983 225.021 705.92 225.021 705.983 225.021 705.983 224.958 691.902 224.958 691.902 287.269 682.917 270.39 656.835 224.958 645.244 224.958 645.244 318.406 659.382 318.406 659.382 256.93 668.788 273.815 695.573 318.406 706.045 318.406 706.045 224.958 705.983 224.958 705.983 225.021"></polyline>
            <polyline id="Fill-37" fill="#FFFFFE" points="778.142 225.021 778.142 238.472 755.44 238.472 755.44 318.343 740.587 318.343 740.587 238.472 717.891 238.472 717.891 225.021 778.142 225.021"></polyline>
            <polyline id="Fill-38" fill="#FFFFFE" points="778.142 225.021 778.08 225.021 778.08 238.409 755.378 238.409 755.378 318.281 740.65 318.281 740.65 238.409 717.953 238.409 717.953 225.083 778.142 225.083 778.142 225.021 778.08 225.021 778.142 225.021 778.142 224.958 717.828 224.958 717.828 238.534 740.525 238.534 740.525 318.406 755.503 318.406 755.503 238.534 778.205 238.534 778.205 224.958 778.142 224.958 778.142 225.021"></polyline>
            <path d="M156.667,620.279 L156.667,631.226 L114.702,631.226 L114.702,638.954 L106.438,638.954 L106.438,631.226 L103.541,631.226 C92.268,631.226 84.865,625.755 84.865,613.947 L84.865,609.763 L93.344,609.763 L93.344,612.876 C93.344,618.562 96.563,620.709 102.254,620.709 L106.438,620.709 L106.438,610.514 L114.702,610.514 L114.702,620.279 L156.667,620.279" id="Fill-39" fill="#FFFFFE"></path>
            <path d="M156.667,620.279 L156.605,620.279 L156.605,631.163 L114.64,631.163 L114.64,638.892 L106.5,638.892 L106.501,631.163 L103.541,631.163 C92.287,631.155 84.934,625.724 84.928,613.947 L84.928,609.825 L93.282,609.825 L93.282,612.876 C93.281,615.729 94.091,617.711 95.625,618.973 C97.159,620.234 99.401,620.772 102.254,620.772 L106.501,620.772 L106.501,610.576 L114.64,610.576 L114.64,620.341 L156.667,620.341 L156.667,620.279 L156.605,620.279 L156.667,620.279 L156.667,620.216 L114.764,620.216 L114.765,610.451 L106.376,610.451 L106.376,620.647 L102.254,620.647 C96.576,620.636 93.415,618.532 93.407,612.876 L93.407,609.7 L84.8029996,609.7 L84.8029996,613.947 C84.802,619.864 86.659,624.205 89.935,627.062 C93.21,629.918 97.895,631.288 103.541,631.288 L106.376,631.288 L106.376,639.017 L114.765,639.017 L114.765,631.288 L156.73,631.288 L156.73,620.216 L156.667,620.216 L156.667,620.279" id="Fill-40" fill="#FFFFFE"></path>
            <path d="M137.987,593.025 L124.898,593.025 C118.136,593.025 113.736,589.166 113.736,582.188 C113.736,575.321 118.136,571.457 124.898,571.457 L137.987,571.457 C144.859,571.457 149.149,575.321 149.149,582.188 C149.149,589.166 144.859,593.025 137.987,593.025 Z M137.026,560.831 L126.074,560.831 C113.195,560.831 105.362,569.63 105.362,582.188 C105.362,594.852 113.195,603.651 126.074,603.651 L137.026,603.651 C149.905,603.651 157.523,594.852 157.523,582.188 C157.523,569.63 149.905,560.831 137.026,560.831 L137.026,560.831 Z" id="Fill-41" fill="#FFFFFE"></path>
            <path d="M137.987,593.025 L137.987,592.962 L124.898,592.962 C118.16,592.956 113.804,589.137 113.799,582.188 C113.804,575.351 118.16,571.526 124.898,571.52 L137.987,571.52 C144.835,571.526 149.081,575.351 149.086,582.188 C149.08,589.138 144.835,592.956 137.987,592.962 L137.987,593.087 C141.434,593.087 144.242,592.119 146.188,590.269 C148.134,588.418 149.212,585.689 149.211001,582.188 C149.212,578.742 148.134,576.04 146.188,574.202 C144.242,572.364 141.434,571.395 137.987,571.395 L124.898,571.395 C121.506,571.395 118.698,572.364 116.739,574.202 C114.779,576.04 113.673,578.742 113.673999,582.188 C113.673,585.69 114.779,588.418 116.738,590.269 C118.698,592.119 121.506,593.087 124.898,593.087 L137.987,593.087 L137.987,593.025 Z M137.026,560.831 L137.026,560.768 L126.074,560.768 C119.621,560.768 114.424,562.974 110.843,566.757 C107.262,570.54 105.299,575.896 105.3,582.188 C105.299,588.533 107.262,593.916 110.843,597.711 C114.424,601.508 119.621,603.714 126.074,603.714 L137.026,603.714 C143.479,603.714 148.623,601.508 152.15,597.711 C155.677,593.915 157.585,588.533 157.585,582.188 C157.585,575.897 155.677,570.541 152.15,566.757 C148.623,562.974 143.479,560.768 137.026,560.768 L137.026,560.893 C149.874,560.897 157.455,569.655 157.46,582.188 C157.455,594.827 149.874,603.584 137.026,603.589 L126.074,603.589 C113.227,603.585 105.43,594.826 105.425,582.188 C105.429,569.656 113.227,560.897 126.074,560.893 L137.026,560.893 L137.026,560.831 L137.026,560.831 Z" id="Fill-42" fill="#FFFFFE"></path>
            <path d="M156.667,537.871 L156.667,548.818 L106.438,548.818 L106.438,539.588 L117.385,538.948 C107.189,535.404 104.722,530.038 106.118,520.808 L116.309,520.808 C114.272,533.046 118.351,537.871 123.932,537.871 L156.667,537.871" id="Fill-43" fill="#FFFFFE"></path>
            <path d="M156.667,537.871 L156.605,537.871 L156.605,548.755 L106.5,548.755 L106.5,539.647 L117.706,538.992 L117.406,538.889 C108.923,535.934 105.827,531.754 105.822,525.113 C105.822,523.783 105.947,522.354 106.18,520.817 L106.118,520.808 L106.118,520.871 L116.309,520.871 L116.309,520.808 L116.247,520.798 C115.883,522.985 115.713,524.938 115.713,526.668 C115.713,530.65 116.608,533.466 118.086,535.289 C119.564,537.112 121.625,537.934 123.932,537.934 L156.667,537.934 L156.667,537.871 L156.605,537.871 L156.667,537.871 L156.667,537.809 L123.932,537.809 C119.383,537.804 115.846,534.599 115.838,526.668 C115.838,524.945 116.007,523 116.37,520.818 L116.382,520.746 L106.064,520.746 L106.056,520.799 C105.823,522.34 105.696994,523.775 105.696994,525.113 C105.692,531.8 108.857,536.056 117.365,539.007 L117.385,538.948 L117.381,538.885 L106.376,539.529 L106.376,548.88 L156.73,548.88 L156.73,537.809 L156.667,537.809 L156.667,537.871" id="Fill-44" fill="#FFFFFE"></path>
            <path d="M156.667,469.198 L156.667,481.006 C152.583,483.684 147.758,484.545 140.46,484.545 L114.702,484.545 L114.702,492.378 L106.438,492.378 L106.438,484.225 L97.209,484.225 L93.775,473.598 L106.438,473.598 L106.438,464.153 L114.702,464.153 L114.702,473.598 L140.46,473.598 C146.902,473.598 152.158,472.417 156.667,469.198" id="Fill-45" fill="#FFFFFE"></path>
            <path d="M156.667,469.198 L156.605,469.198 L156.605,481.006 L156.667,481.006 L156.633,480.954 C152.563,483.622 147.754,484.482 140.46,484.482 L114.64,484.482 L114.64,492.315 L106.501,492.315 L106.501,484.162 L97.254,484.162 L93.861,473.661 L106.501,473.661 L106.501,464.215 L114.64,464.215 L114.64,473.661 L140.46,473.661 C146.909,473.661 152.181,472.477 156.704,469.249 L156.667,469.198 L156.605,469.198 L156.667,469.198 L156.631,469.147 C152.135,472.356 146.895,473.535 140.46,473.536 L114.764,473.536 L114.765,464.09 L106.376,464.09 L106.376,473.536 L93.689,473.536 L97.163,484.287 L106.376,484.287 L106.376,492.44 L114.765,492.44 L114.765,484.607 L140.46,484.607 C147.761,484.607 152.602,483.746 156.702,481.058 L156.73,481.04 L156.73,469.077 L156.631,469.147 L156.667,469.198" id="Fill-46" fill="#FFFFFE"></path>
            <path d="M113.521,431.533 C113.521,438.726 122.966,443.661 128.868,443.661 L156.667,443.661 L156.667,454.503 L85.191,454.503 L85.191,443.661 L117.06,443.661 C108.906,440.228 105.362,433.465 105.362,427.023 C105.362,417.903 112.34,412.323 122.215,412.323 L156.667,412.323 L156.667,423.27 L122.751,423.27 C116.85,423.27 113.521,426.278 113.521,431.533" id="Fill-47" fill="#FFFFFE"></path>
            <path d="M113.521,431.533 L113.458,431.533 C113.47,438.786 122.94,443.719 128.868,443.724 L156.605,443.724 L156.605,454.44 L85.253,454.44 L85.253,443.724 L117.371,443.724 L117.083,443.604 C108.953,440.178 105.426,433.443 105.425,427.023 C105.427,417.94 112.362,412.39 122.215,412.385 L156.604,412.385 L156.605,423.207 L122.751,423.207 C119.79,423.207 117.466,423.962 115.881,425.384 C114.296,426.806 113.458,428.893 113.458,431.533 L113.583,431.533 C113.589,426.309 116.87,423.339 122.751,423.332 L156.73,423.332 L156.73,412.26 L122.215,412.26 C117.266,412.26 113.038,413.659 110.045,416.206 C107.052,418.752 105.299,422.447 105.3,427.023 C105.298,433.488 108.859,440.277 117.035,443.719 L117.06,443.661 L117.06,443.599 L85.128,443.599 L85.128,454.565 L156.73,454.565 L156.73,443.599 L128.868,443.599 C125.934,443.599 122.104,442.369 119.017,440.243 C115.927,438.117 113.583,435.1 113.583,431.533 L113.521,431.533" id="Fill-48" fill="#FFFFFE"></path>
            <path d="M126.615,390.334 L123.392,390.334 C117.816,390.334 113.736,386.36 113.736,379.708 C113.736,373.161 118.031,369.192 123.392,369.192 L126.615,369.192 L126.615,390.334 Z M140.245,359.316 L140.029,359.316 L140.029,368.866 L141.101,368.866 C145.505,368.866 149.149,372.41 149.149,378.958 C149.149,386.15 144.964,390.334 139.063,390.334 L132.196,390.334 L132.196,359.316 L125.969,359.316 C113.736,359.316 105.362,366.614 105.362,379.813 C105.362,393.018 113.841,400.851 125.864,400.851 L137.347,400.851 C149.69,400.851 157.523,392.477 157.523,379.598 C157.523,368.331 151.086,359.316 140.245,359.316 L140.245,359.316 Z" id="Fill-49" fill="#FFFFFE"></path>
            <path d="M126.615,390.334 L126.615,390.272 L123.392,390.272 C117.848,390.268 113.803,386.334 113.799,379.708 C113.802,373.189 118.063,369.257 123.392,369.254 L126.553,369.254 L126.553,390.334 L126.615,390.334 L126.615,390.272 L126.615,390.334 L126.678,390.334 L126.678,369.129 L123.392,369.129 C120.696,369.129 118.265,370.128 116.509,371.952 C114.752,373.775 113.673,376.421 113.673999,379.708 C113.673,383.047 114.698,385.72 116.427,387.559 C118.157,389.397 120.589,390.397 123.392,390.397 L126.678,390.397 L126.678,390.334 L126.615,390.334 Z M140.245,359.316 L140.245,359.254 L139.967,359.254 L139.967,368.929 L141.101,368.929 C145.468,368.931 149.082,372.433 149.086,378.958 C149.082,386.125 144.932,390.268 139.063,390.272 L132.258,390.272 L132.259,359.254 L125.969,359.254 C119.841,359.254 114.671,361.083 111.035,364.57 C107.398,368.057 105.299,373.201 105.3,379.813 C105.299,386.428 107.424,391.706 111.061,395.328 C114.696,398.95 119.839,400.913 125.864,400.913 L137.347,400.913 C143.532,400.914 148.595,398.813 152.109,395.097 C155.623,391.38 157.585,386.049 157.585,379.598 C157.585,373.953 155.973,368.868 152.998,365.193 C150.023,361.517 145.683,359.253 140.245,359.254 L140.245,359.379 C151.046,359.38 157.457,368.352 157.46,379.598 C157.456,392.451 149.659,400.784 137.347,400.788 L125.864,400.788 C113.87,400.783 105.429,392.989 105.425,379.813 C105.43,366.643 113.762,359.385 125.969,359.379 L132.134,359.379 L132.134,390.397 L139.063,390.397 C142.028,390.397 144.569,389.344 146.365,387.385 C148.161,385.427 149.211,382.565 149.211,378.958 C149.211,375.672 148.297,373.134 146.824,371.416 C145.351,369.698 143.32,368.803 141.101,368.804 L140.092,368.804 L140.092,359.379 L140.245,359.379 L140.245,359.316 L140.245,359.316 Z" id="Fill-50" fill="#FFFFFE"></path>
            <path d="M250.521,546.965 L262.969,435.802 L272.409,546.965 L250.521,546.965 Z M295.158,351.683 L231.635,351.683 L190.006,637.521 L239.789,637.521 L244.514,591.597 L277.134,591.597 L280.993,637.521 L336.356,637.521 L295.158,351.683 L295.158,351.683 Z" id="Fill-51" fill="#FFFFFE"></path>
            <path d="M428.209,465.843 C428.209,475.289 424.776,478.722 418.77,478.722 L405.035,478.722 L405.035,398.031 L418.77,398.031 C424.776,398.031 428.209,401.465 428.209,410.91 L428.209,465.843 Z M481.856,589.88 L481.856,534.517 C481.856,520.351 472.416,507.047 458.251,499.324 C472.416,491.165 481,478.292 481,464.126 L481,407.046 C481,368.845 453.106,351.683 426.067,351.683 L349.666,351.683 L349.666,637.521 L405.035,637.521 L405.035,521.212 L417.908,521.212 C425.637,521.212 429.496,528.935 429.496,536.233 L429.496,593.313 C429.496,611.343 434.221,637.521 442.799,637.521 L489.154,637.521 L489.154,636.234 C485.29,622.5 481.856,607.909 481.856,589.88 L481.856,589.88 Z" id="Fill-52" fill="#FFFFFE"></path>
            <polyline id="Fill-53" fill="#FFFFFE" points="629.078 351.683 629.078 401.896 589.596 401.896 589.596 637.521 534.658 637.521 534.658 401.896 495.17 401.896 495.17 351.683 629.078 351.683"></polyline>
            <path d="M771.585,571.798 C771.585,616.32 742.75,643.033 705.012,643.033 C663.036,643.033 638.019,618.441 638.019,576.466 L638.019,551.868 L685.082,551.868 L685.082,578.162 C685.082,589.607 691.02,597.241 702.471,597.241 C713.491,597.241 719.003,590.458 719.003,578.582 C719.003,555.686 705.437,538.302 686.353,514.555 C665.158,490.813 639.29,456.892 639.29,421.694 C639.29,383.11 661.766,350.039 707.558,350.039 C744.021,350.039 768.613,376.327 768.613,416.187 L768.613,440.779 L721.55,440.779 L721.55,412.795 C721.55,402.615 715.617,396.682 707.558,396.682 C699.499,396.682 691.871,402.195 691.871,413.215 C691.871,440.354 705.437,452.229 724.942,478.092 C747.838,505.65 771.585,535.335 771.585,571.798" id="Fill-54" fill="#FFFFFE"></path>
            <path d="M542.281,733.705 C542.281,736.818 539.708,739.071 536.595,739.071 C533.807,739.071 532.306,737.034 532.306,734.24 L532.306,731.348 C532.306,726.622 535.524,724.05 542.281,722.543 L542.281,733.705 Z M553.233,736.818 L553.233,709.99 C553.233,700.97 548.728,694.317 538.422,694.317 C528.121,694.317 523.396,700.544 523.396,708.808 L523.396,712.026 L533.697,712.026 L533.697,708.268 C533.697,705.159 534.773,703.547 537.881,703.547 C540.89,703.547 542.281,705.264 542.281,708.058 L542.281,715.46 C530.263,718.469 521.569,722.438 521.569,732.849 L521.569,734.351 C521.569,742.72 526.509,747.55 533.271,747.55 C538.317,747.55 542.281,745.297 544.749,741.002 C545.825,745.618 548.933,747.55 553.128,747.55 L555.806,747.55 L555.806,739.501 C553.984,739.396 553.233,738.535 553.233,736.818 L553.233,736.818 Z" id="Fill-55" fill="#FFFFFE"></path>
            <path d="M585.422,694.748 L585.422,706.446 C576.512,705.159 573.404,708.268 573.404,712.888 L573.404,746.694 L562.132,746.694 L562.132,695.179 L571.688,695.179 L572.433,703.978 C574.476,696.25 579.09,693.462 585.422,694.748" id="Fill-56" fill="#FFFFFE"></path>
            <path d="M605.273,704.409 L605.273,730.917 C605.273,737.249 605.804,742.184 607.956,746.694 L596.364,746.694 C594.537,742.615 593.896,738.215 593.896,730.917 L593.896,704.409 L588.1,704.409 L588.1,695.179 L594.426,695.179 L594.426,686.159 L605.273,683.266 L605.273,695.179 L612.141,695.179 L612.141,704.409 L605.273,704.409" id="Fill-57" fill="#FFFFFE"></path>
            <path d="M646.803,732.954 C646.803,740.467 641.867,747.55 631.561,747.55 C621.47,747.55 615.895,741.433 615.895,732.523 L615.895,730.056 L625.555,730.056 L625.555,732.849 C625.555,737.034 627.697,738.75 631.131,738.75 C634.564,738.75 636.496,737.249 636.496,733.92 C636.496,729.305 633.173,727.483 626.731,723.509 C620.609,720.186 616.535,715.891 616.535,708.698 C616.535,699.789 622.872,694.317 631.561,694.317 C641.111,694.317 646.367,700.329 646.367,708.913 L646.367,710.845 L637.032,710.845 L637.032,708.268 C637.032,705.264 635.315,703.442 631.771,703.442 C628.663,703.442 627.057,704.944 627.057,707.732 C627.057,711.061 629.304,713.098 634.779,716.321 C641.542,719.97 646.803,724.26 646.803,732.954" id="Fill-58" fill="#FFFFFE"></path>
            <polygon id="Fill-59" fill="#FFFFFE" points="653.449 746.694 663.75 746.694 663.75 733.064 653.449 733.064"></polygon>
            <path d="M692.611,714.389 C692.611,717.393 690.684,719.755 687.571,719.755 C684.352,719.755 682.525,717.393 682.525,714.389 L682.525,708.377 C682.525,705.264 684.352,702.902 687.571,702.902 C690.684,702.902 692.611,705.264 692.611,708.377 L692.611,714.389 Z M680.808,747.87 C680.808,744.867 683.166,742.83 688.216,742.83 C693.687,742.83 695.514,744.762 695.514,747.765 L695.514,750.448 C695.514,753.451 693.367,755.708 688.216,755.708 C683.276,755.708 680.808,753.561 680.808,750.558 L680.808,747.87 Z M707.642,693.887 C707.642,692.816 707.642,691.74 707.317,689.598 L699.163,689.598 C699.163,692.816 698.197,695.179 693.687,695.179 C692.721,695.179 690.894,694.317 687.571,694.317 C678.766,694.317 672.004,700.865 672.004,709.344 L672.004,712.667 C672.004,718.248 674.372,723.724 678.766,725.441 C674.482,726.087 671.148,729.951 671.148,733.6 C671.148,736.818 673.19,739.932 677.16,741.328 C672.865,742.72 670.507,746.048 670.507,749.697 L670.507,752.06 C670.507,759.573 678.015,764.508 688.111,764.508 C699.163,764.508 705.6,758.391 705.6,749.587 L705.6,747.119 C705.6,739.396 700.555,734.351 689.067,734.351 C682.2,734.351 680.273,733.064 680.273,730.917 C680.273,729.09 681.664,727.373 684.027,727.373 C684.783,727.588 686.709,727.693 687.571,727.693 C697.011,727.693 703.237,721.577 703.237,712.993 L703.237,709.233 C703.237,705.479 701.631,702.261 698.838,699.578 C700.129,700.219 701.2,700.434 702.271,700.434 C705.175,700.434 707.642,698.182 707.642,693.887 L707.642,693.887 Z" id="Fill-60" fill="#FFFFFE"></path>
            <path d="M731.463,733.169 C731.463,736.283 729.53,738.43 726.632,738.43 C723.519,738.43 721.802,736.283 721.802,733.169 L721.802,708.808 C721.802,705.695 723.519,703.442 726.632,703.442 C729.53,703.442 731.463,705.695 731.463,708.808 L731.463,733.169 Z M726.632,694.317 C717.187,694.317 710.75,700.76 710.75,710.95 L710.75,731.022 C710.75,741.328 717.187,747.55 726.632,747.55 C735.967,747.55 742.409,741.328 742.409,731.022 L742.409,710.95 C742.409,700.76 735.967,694.317 726.632,694.317 L726.632,694.317 Z" id="Fill-61" fill="#FFFFFE"></path>
            <polyline id="Fill-62" fill="#FFFFFE" points="781.035 695.179 768.802 746.694 758.926 746.694 746.688 695.179 757.745 695.179 762.575 720.721 764.187 730.591 765.794 720.721 770.414 695.179 781.035 695.179"></polyline>
        </g>
    </g>
</svg>
